<svg width="289" height="275" viewBox="0 0 289 275" fill="none" xmlns="http://www.w3.org/2000/svg">
<path d="M253.554 137.415L241.554 142.035L237.124 153.815L260.404 177.095L190.644 246.855L160.644 216.775L184.054 193.365C186.284 194.933 188.995 195.666 191.71 195.433C194.426 195.201 196.974 194.019 198.904 192.095L237.184 153.815L234.904 147.265L220.744 137.415L190.744 167.545L160.004 136.815L144.214 153.815L130.714 134.545L97.7143 167.545L65.9043 135.625L51.3143 153.815L89.5943 192.095C91.5262 194.024 94.0773 195.209 96.7977 195.442C99.518 195.674 102.233 194.939 104.464 193.365L127.904 216.775L97.8243 246.855L28.0643 177.095L51.3443 153.815L37.7743 134.545L3.39426 168.895C1.22094 171.068 0 174.016 0 177.09C0 180.164 1.22094 183.111 3.39426 185.285L89.5443 271.435C91.7191 273.606 94.6664 274.825 97.7393 274.825C100.812 274.825 103.759 273.606 105.934 271.435L144.214 233.155L182.484 271.435C184.661 273.606 187.61 274.826 190.684 274.826C193.759 274.826 196.708 273.606 198.884 271.435L285.034 185.285C287.208 183.111 288.429 180.164 288.429 177.09C288.429 174.016 287.208 171.068 285.034 168.895L253.554 137.415ZM120.904 177.105L144.184 153.815L167.464 177.105L144.184 200.385L120.904 177.105Z" fill="#55517B"/>
<path d="M27.9843 97.7443L97.7443 27.9843L127.824 58.0643L103.904 82.0143C104.447 82.3931 104.955 82.818 105.424 83.2843L120.424 98.2843L144.244 74.4643L168.404 98.6443L183.404 83.6443C183.873 83.178 184.382 82.7531 184.924 82.3743L160.604 58.0643L190.684 27.9843L260.444 97.7443L237.164 121.024L242.584 131.464L253.584 137.464L285.064 105.994C287.238 103.821 288.459 100.873 288.459 97.7993C288.459 94.7256 287.238 91.7778 285.064 89.6043L198.904 3.39426C196.731 1.22094 193.783 0 190.709 0C187.636 0 184.688 1.22094 182.514 3.39426L144.244 41.6643L105.904 3.39426C104.829 2.31845 103.552 1.46505 102.147 0.882797C100.742 0.300546 99.2354 0.000862122 97.7143 0.000862122C96.1932 0.000862122 94.6869 0.300546 93.2817 0.882797C91.8764 1.46505 90.5996 2.31845 89.5243 3.39426L3.39426 89.5443C1.22094 91.7178 0 94.6656 0 97.7393C0 100.813 1.22094 103.761 3.39426 105.934L34.9043 137.414L53.0643 122.794L27.9843 97.7443Z" fill="#55517B"/>
<g style="mix-blend-mode:multiply">
<path d="M67.6534 137.424L51.2627 153.814L61.042 163.594L77.4327 147.203L67.6534 137.424Z" fill="#BCBEC0"/>
</g>
<g style="mix-blend-mode:multiply">
<path d="M153.954 163.554L170.344 147.164L161.384 138.194L160.594 137.424L144.214 153.814L144.524 154.134L153.954 163.554Z" fill="#BCBEC0"/>
</g>
<g style="mix-blend-mode:multiply">
<path d="M104.414 193.364L114.324 203.284L130.714 186.894L120.934 177.104L104.414 193.364Z" fill="#BCBEC0"/>
</g>
<g style="mix-blend-mode:multiply">
<path d="M160.605 216.781L144.214 233.172L154.007 242.965L170.398 226.575L160.605 216.781Z" fill="#BCBEC0"/>
</g>
<g style="mix-blend-mode:multiply">
<path d="M160.609 58.0663L144.219 74.457L154.005 84.2434L170.396 67.8526L160.609 58.0663Z" fill="#BCBEC0"/>
</g>
<g style="mix-blend-mode:multiply">
<path d="M220.775 137.419L210.988 147.205L227.379 163.596L237.165 153.809L220.775 137.419Z" fill="#BCBEC0"/>
</g>
<g style="mix-blend-mode:multiply">
<path d="M167.494 177.104L157.704 186.894L174.094 203.284L184.014 193.364L167.494 177.104Z" fill="#BCBEC0"/>
</g>
<path d="M198.904 82.7444C196.972 80.8152 194.421 79.6299 191.701 79.3975C188.981 79.1652 186.265 79.9007 184.034 81.4744C183.491 81.8562 182.98 82.2809 182.504 82.7444L144.234 121.034L105.904 82.7444C103.724 80.5833 100.779 79.3707 97.7093 79.3707C94.6396 79.3707 91.6943 80.5833 89.5143 82.7444L34.9043 137.414L51.2943 153.814L97.7643 107.344L144.234 153.824L190.704 107.344L237.174 153.814L253.564 137.414L198.904 82.7444Z" fill="url(#paint0_linear_461_5086)"/>
<defs>
<linearGradient id="paint0_linear_461_5086" x1="227.234" y1="169.954" x2="132.084" y2="121.514" gradientUnits="userSpaceOnUse">
<stop offset="0.16" stop-color="#55517B"/>
<stop offset="1" stop-color="#DC0451"/>
</linearGradient>
</defs>
</svg>
